<svg width="246" height="47" viewBox="0 0 246 47" fill="none" xmlns="http://www.w3.org/2000/svg">
<path d="M17.0938 35.3516H7.67188C6.25 35.3516 4.99219 35.0703 3.89844 34.5078C1.94531 33.4922 0.96875 31.7344 0.96875 29.2344C0.96875 26.75 1.90625 25 3.78125 23.9844C4.89062 23.3906 6.1875 23.0938 7.67188 23.0938H16.3203V18.9219C16.3203 16.5312 15.4375 14.7578 13.6719 13.6016C12.375 12.7578 10.8281 12.3359 9.03125 12.3359H3.26562V11.5859H9.03125C10.9688 11.5859 12.6562 12.0469 14.0938 12.9688C16.0938 14.2656 17.0938 16.25 17.0938 18.9219V35.3516ZM16.3203 34.625V23.8672H7.67188C3.70312 23.8672 1.71875 25.6562 1.71875 29.2344C1.71875 31.4062 2.5625 32.9375 4.25 33.8281C5.25 34.3594 6.39062 34.625 7.67188 34.625H16.3203ZM93.125 28.2734C93.125 30.2578 92.4375 31.9375 91.0625 33.3125C89.6719 34.6719 87.9922 35.3516 86.0234 35.3516H77.75V46.5078H77V11.5859H86.0234C88.0078 11.5859 89.6875 12.2734 91.0625 13.6484C92.4375 15.0234 93.125 16.7031 93.125 18.6875V28.2734ZM92.3516 28.2734V18.6875C92.3516 16.9219 91.7344 15.4219 90.5 14.1875C89.2812 12.9531 87.7891 12.3359 86.0234 12.3359H77.75V34.625H86.0234C87.7891 34.625 89.2812 34.0078 90.5 32.7734C91.7344 31.5391 92.3516 30.0391 92.3516 28.2734ZM125 35.3516C123.797 35.3516 122.789 34.9453 121.977 34.1328C121.164 33.3203 120.758 32.3281 120.758 31.1562V0.429688H121.531V31.1562C121.531 32.125 121.867 32.9453 122.539 33.6172C123.211 34.2891 124.031 34.625 125 34.625V35.3516ZM169.156 27.3125C169.156 29.5625 168.375 31.4688 166.812 33.0312C165.234 34.5781 163.328 35.3516 161.094 35.3516C158.844 35.3516 156.938 34.5781 155.375 33.0312C153.812 31.4688 153.031 29.5625 153.031 27.3125V19.6484C153.031 17.3984 153.812 15.4922 155.375 13.9297C156.938 12.3672 158.844 11.5859 161.094 11.5859C163.344 11.5859 165.25 12.3672 166.812 13.9297C168.375 15.4922 169.156 17.3984 169.156 19.6484V27.3125ZM168.383 27.3125V19.6484C168.383 17.6172 167.672 15.8906 166.25 14.4688C164.844 13.0469 163.125 12.3359 161.094 12.3359C159.062 12.3359 157.336 13.0469 155.914 14.4688C154.492 15.8906 153.781 17.6172 153.781 19.6484V27.3125C153.781 29.3438 154.492 31.0703 155.914 32.4922C157.336 33.9141 159.062 34.625 161.094 34.625C163.125 34.625 164.844 33.9141 166.25 32.4922C167.672 31.0703 168.383 29.3438 168.383 27.3125ZM211.016 35H210.242V18.6875C210.242 16.9219 209.625 15.4219 208.391 14.1875C207.156 12.9531 205.656 12.3359 203.891 12.3359H199.484V35H198.711V12.3359H187.977V35H187.203V11.5859H203.891C205.859 11.5859 207.539 12.2812 208.93 13.6719C210.32 15.0625 211.016 16.7344 211.016 18.6875V35ZM245.188 27.3125C245.188 29.5625 244.406 31.4688 242.844 33.0312C241.266 34.5781 239.359 35.3516 237.125 35.3516C234.875 35.3516 232.969 34.5781 231.406 33.0312C229.844 31.4688 229.062 29.5625 229.062 27.3125V19.6484C229.062 17.3984 229.844 15.4922 231.406 13.9297C232.969 12.3672 234.875 11.5859 237.125 11.5859C239.375 11.5859 241.281 12.3672 242.844 13.9297C244.406 15.4922 245.188 17.3984 245.188 19.6484V27.3125ZM244.414 27.3125V19.6484C244.414 17.6172 243.703 15.8906 242.281 14.4688C240.875 13.0469 239.156 12.3359 237.125 12.3359C235.094 12.3359 233.367 13.0469 231.945 14.4688C230.523 15.8906 229.812 17.6172 229.812 19.6484V27.3125C229.812 29.3438 230.523 31.0703 231.945 32.4922C233.367 33.9141 235.094 34.625 237.125 34.625C239.156 34.625 240.875 33.9141 242.281 32.4922C243.703 31.0703 244.414 29.3438 244.414 27.3125Z" fill="white"/>
</svg>
